<?xml version="1.0" encoding="utf-8"?>
<!-- Generator: Adobe Illustrator 16.0.0, SVG Export Plug-In . SVG Version: 6.00 Build 0)  -->
<!DOCTYPE svg PUBLIC "-//W3C//DTD SVG 1.1//EN" "http://www.w3.org/Graphics/SVG/1.1/DTD/svg11.dtd">
<svg version="1.1" id="Layer_1" xmlns="http://www.w3.org/2000/svg" xmlns:xlink="http://www.w3.org/1999/xlink" x="0px" y="0px"
	 width="1920px" height="191.996px" viewBox="-460 -45.999 1920 191.996" enable-background="new -460 -45.999 1920 191.996"
	 xml:space="preserve">
<path opacity="0.33" fill="#F1A626" enable-background="new    " d="M551.84,16.781c391.487-169.535,505.151,65.28,614.976,0
	C1333.279-82.674,1460,31.373,1460,31.373v114.624H-460V31.373c0,0,119.23-50.111,182.209-56.256
	c62.976-6.336,120.575,23.615,145.535,42.432C-87.52,50.766,29.024,129.293,125.791,136.973
	C222.561,144.652,514.592,32.717,551.84,16.781z"/>
<path opacity="0.66" fill="#F1A626" enable-background="new    " d="M50.72,16.781c87.36,0,148.225,44.544,247.872,75.071
	c54.912,16.705,288.576,19.393,487.68-75.071c199.104-94.464,176.064,66.048,286.465,0c165.119-97.92,387.264,52.8,387.264,52.8
	v76.416H-460v-70.08c0,0,54.145,35.521,176.831,35.521C-95.584,111.245-29.345,16.781,50.72,16.781z"/>
<path fill="#F1A626" d="M-10.911,90.51c384,110.399,510.72-125.762,758.591-37.44c247.68,89.472,247.68,82.56,357.505,53.375
	c109.056-29.183,100.8-46.655,182.208-61.247C1405.088,23.692,1460,145.997,1460,145.997H-460c0,0,19.009-78.527,160.512-92.352
	C-157.984,39.821-132.831,55.758-10.911,90.51z"/>
</svg>
